HIERARCHY
ROOT Hips
{
  OFFSET 0 0 0
  CHANNELS 6 Xposition Yposition Zposition Zrotation Yrotation Xrotation
  JOINT LeftThigh
  {
    OFFSET 8.409438 0 -5.917753
    CHANNELS 3 Zrotation Yrotation Xrotation
    JOINT LeftLeg
    {
      OFFSET 0 0 -42.358652
      CHANNELS 3 Zrotation Yrotation Xrotation
      JOINT LeftFoot
      {
        OFFSET 0 0 -39.357303
        CHANNELS 3 Zrotation Yrotation Xrotation
      }
    }
  }
  JOINT RightThigh
  {
    OFFSET -8.409438 0 -5.917753
    CHANNELS 3 Zrotation Yrotation Xrotation
    JOINT RightLeg
    {
      OFFSET 0 0 -42.358652
      CHANNELS 3 Zrotation Yrotation Xrotation
      JOINT RightFoot
      {
        OFFSET 0 0 -39.357303
        CHANNELS 3 Zrotation Yrotation Xrotation
      }
    }
  }
  JOINT SpineLow
  {
    OFFSET 0 0 4.719101
    CHANNELS 3 Zrotation Yrotation Xrotation
    JOINT SpineMid
    {
      OFFSET 0 0 12.899191
      CHANNELS 3 Zrotation Yrotation Xrotation
      JOINT Chest
      {
        OFFSET 0 0 12.899191
        CHANNELS 3 Zrotation Yrotation Xrotation
        JOINT LeftShoulder
        {
          OFFSET 7.550562 1.41573 9.438202
          CHANNELS 3 Zrotation Yrotation Xrotation
          JOINT LeftArm
          {
            OFFSET 9.155056 0 4.247191
            CHANNELS 3 Zrotation Yrotation Xrotation
            JOINT LeftForearm
            {
              OFFSET 0 0 25.771955
              CHANNELS 3 Zrotation Yrotation Xrotation
              JOINT LeftHand
              {
                OFFSET 0 0 25.197169
                CHANNELS 3 Zrotation Yrotation Xrotation
              }
            }
          }
        }
        JOINT RightShoulder
        {
          OFFSET -7.550562 1.41573 9.438202
          CHANNELS 3 Zrotation Yrotation Xrotation
          JOINT RightArm
          {
            OFFSET -9.155056 0 4.247191
            CHANNELS 3 Zrotation Yrotation Xrotation
            JOINT RightForearm
            {
              OFFSET 0 0 -25.771955
              CHANNELS 3 Zrotation Yrotation Xrotation
              JOINT RightHand
              {
                OFFSET 0 0 -25.197169
                CHANNELS 3 Zrotation Yrotation Xrotation
              }
            }
          }
        }
        JOINT Neck
        {
          OFFSET 0 0 15.101124
          CHANNELS 3 Zrotation Yrotation Xrotation
          JOINT Head
          {
            OFFSET 0 0 11.325843
            CHANNELS 3 Zrotation Yrotation Xrotation
            End Site
            {
              OFFSET 0 0 14.157303
            }
          }
        }
      }
    }
  }
}
MOTION
Frames: 5
Frame Time: 0.0
0.0  93.25843  0.0  -2.260902  -18.112236  -84.210443  31.755634  -19.034705  -44.794214  2.945195  8.780207  42.160142  -4.269842  0.544041  -1.622024  -13.79247  18.908663  5.411926  -8.548964  2.578036  5.706535  4.601605  0.23197  -0.455598  1.097424  -0.508892  -0.168053  3.003624  -1.383044  -0.482402  3.003624  -1.383044  -0.482402  -20.890118  19.332381  3.915419  -111.668897  73.19726  -51.476257  -42.999111  13.705955  84.330712  63.562445  -21.961755  -3.74769  -0.160637  -8.883002  21.362885  93.876565  38.349241  34.374991  -21.204176  -14.425444  -118.925798  68.081029  -25.358778  -20.618631  7.219914  2.258105  3.371781  5.401968  1.733757  2.502233  
0.0  93.25843  0.0  -2.222711  -18.220481  -84.138724  32.192205  -18.483005  -45.151217  3.133088  8.709324  42.424732  -3.834171  0.588149  -1.300949  -12.839247  18.928442  5.857854  -8.694928  2.454561  5.176247  4.232947  0.18834  -0.349393  1.134454  -0.498867  -0.190111  3.105218  -1.354331  -0.542988  3.105218  -1.354331  -0.542988  -21.11385  19.362483  3.896372  -112.404131  72.981649  -51.943997  -43.022277  13.56009  84.204829  63.504685  -21.998502  -3.838955  -0.273578  -8.855257  21.314402  94.05602  38.19497  34.318204  -21.297562  -14.376401  -118.776563  68.029749  -25.321544  -20.652308  6.730679  2.108573  3.376282  5.03597  1.618901  2.509055  
0.0  93.25843  0.0  -2.324706  -17.943548  -83.904462  32.461361  -17.982427  -45.58762  3.182323  8.709248  42.674343  -3.669617  0.614544  -1.195946  -12.407034  18.808063  6.182367  -8.909317  2.288464  4.653003  3.899501  0.150406  -0.234174  1.145226  -0.50226  -0.231462  3.135545  -1.361549  -0.656383  3.135545  -1.361549  -0.656383  -21.332823  19.453393  3.93084  -112.890982  72.822414  -52.188402  -43.088771  13.587642  84.275003  63.418302  -22.019968  -3.926369  -0.294562  -8.780406  21.344452  93.919517  38.204223  34.048983  -21.378707  -14.32665  -118.639319  67.875166  -25.211552  -20.547413  6.403649  1.993146  3.501231  4.791018  1.531801  2.605105  
0.0  93.25843  0.0  -2.284716  -18.106185  -83.845082  32.567174  -17.442894  -45.983695  3.386248  8.534549  43.075401  -3.145711  0.479652  -0.873402  -11.592725  18.986844  6.546521  -9.025854  2.13045  4.162576  3.586532  0.095811  -0.125379  1.151733  -0.514893  -0.274373  3.154374  -1.393955  -0.774402  3.154374  -1.393955  -0.774402  -21.135571  19.731913  4.046973  -113.360679  72.691392  -52.332129  -43.307829  13.562797  84.254413  63.385031  -22.009243  -4.015174  -0.453548  -8.726107  21.262208  94.459029  37.877441  34.230701  -21.424514  -14.294443  -118.515326  67.580127  -25.082393  -20.407741  6.224235  1.94138  3.684764  4.656223  1.493808  2.743867  
0.0  93.25843  0.0  -2.370305  -17.808964  -83.598643  32.562967  -17.094247  -46.389023  3.624535  8.45366  43.456059  -3.077894  0.466117  -0.793936  -11.620818  19.009443  6.688618  -9.095319  1.983353  3.635821  3.331787  0.044791  0.004775  1.17454  -0.50894  -0.317037  3.217524  -1.375336  -0.891187  3.217524  -1.375336  -0.891187  -21.440268  19.743626  4.038967  -113.774023  72.586408  -52.441935  -43.473195  13.53581  84.287971  63.307135  -22.024035  -4.04198  -0.453113  -8.687063  21.250867  94.293441  37.942336  33.920378  -21.49115  -14.260455  -118.376324  67.24422  -24.80743  -20.163722  5.817329  1.78974  3.765514  4.351809  1.378356  2.807167  
